<?xml version="1.0" encoding="UTF-8" standalone="no"?>
<svg
   xmlns:dc="http://purl.org/dc/elements/1.1/"
   xmlns:cc="http://creativecommons.org/ns#"
   xmlns:rdf="http://www.w3.org/1999/02/22-rdf-syntax-ns#"
   xmlns:svg="http://www.w3.org/2000/svg"
   xmlns="http://www.w3.org/2000/svg"
   xmlns:xlink="http://www.w3.org/1999/xlink"
   xmlns:sodipodi="http://sodipodi.sourceforge.net/DTD/sodipodi-0.dtd"
   xmlns:inkscape="http://www.inkscape.org/namespaces/inkscape"
   width="150"
   height="150"
   viewBox="0 0 39.687501 39.687501"
   version="1.1"
   id="svg8"
   inkscape:version="1.0.2 (e86c870879, 2021-01-15)"
   sodipodi:docname="shomu.svg"
   inkscape:export-filename="./shomu_V11.png"
   inkscape:export-xdpi="327.67999"
   inkscape:export-ydpi="327.67999">
  <defs
     id="defs2">
    <linearGradient
       inkscape:collect="always"
       id="linearGradient3570">
      <stop
         style="stop-color:#ffffff;stop-opacity:0.17"
         offset="0"
         id="stop3566" />
      <stop
         style="stop-color:#ffffff;stop-opacity:0;"
         offset="1"
         id="stop3568" />
    </linearGradient>
    <linearGradient
       inkscape:collect="always"
       id="linearGradient1314">
      <stop
         style="stop-color:#00ffff;stop-opacity:1;"
         offset="0"
         id="stop1310" />
      <stop
         style="stop-color:#ff00fe;stop-opacity:1"
         offset="1"
         id="stop1312" />
    </linearGradient>
    <filter
       inkscape:collect="always"
       style="color-interpolation-filters:sRGB"
       id="filter4230"
       x="-0.023036581"
       width="1.0460732"
       y="-0.023036581"
       height="1.0460732">
      <feGaussianBlur
         inkscape:collect="always"
         stdDeviation="0.30814093"
         id="feGaussianBlur4232" />
    </filter>
    <linearGradient
       inkscape:collect="always"
       xlink:href="#linearGradient3570"
       id="linearGradient4246"
       gradientUnits="userSpaceOnUse"
       gradientTransform="matrix(0.92857143,0,0,0.92857143,1.4174131,0.97643902)"
       x1="19.84375"
       y1="25.135416"
       x2="23.8125"
       y2="21.166666" />
    <linearGradient
       inkscape:collect="always"
       xlink:href="#linearGradient1314"
       id="linearGradient4248"
       gradientUnits="userSpaceOnUse"
       gradientTransform="matrix(0.22930555,0,0,0.22930555,2.6458333,2.204862)"
       x1="75"
       y1="95"
       x2="120"
       y2="60" />
    <linearGradient
       inkscape:collect="always"
       xlink:href="#linearGradient1314"
       id="linearGradient4250"
       gradientUnits="userSpaceOnUse"
       gradientTransform="matrix(0.22930555,0,0,0.22930555,2.6458333,2.204862)"
       x1="75"
       y1="95"
       x2="120"
       y2="60" />
    <linearGradient
       inkscape:collect="always"
       xlink:href="#linearGradient1314"
       id="linearGradient4252"
       gradientUnits="userSpaceOnUse"
       gradientTransform="matrix(0.22930555,0,0,0.22930555,2.6458333,2.204862)"
       x1="75"
       y1="95"
       x2="120"
       y2="60" />
  </defs>
  <sodipodi:namedview
     id="base"
     pagecolor="#ffffff"
     bordercolor="#666666"
     borderopacity="1.0"
     inkscape:pageopacity="0"
     inkscape:pageshadow="2"
     inkscape:zoom="2.8756549"
     inkscape:cx="14.827066"
     inkscape:cy="95.349254"
     inkscape:document-units="mm"
     inkscape:current-layer="layer3"
     inkscape:document-rotation="0"
     showgrid="false"
     inkscape:window-width="1920"
     inkscape:window-height="1027"
     inkscape:window-x="0"
     inkscape:window-y="29"
     inkscape:window-maximized="1"
     inkscape:pagecheckerboard="false"
     units="px"
     showguides="true">
    <inkscape:grid
       type="xygrid"
       id="grid869" />
  </sodipodi:namedview>
  <metadata
     id="metadata5">
    <rdf:RDF>
      <cc:Work
         rdf:about="">
        <dc:format>image/svg+xml</dc:format>
        <dc:type
           rdf:resource="http://purl.org/dc/dcmitype/StillImage" />
        <dc:title />
      </cc:Work>
    </rdf:RDF>
  </metadata>
  <g
     inkscape:groupmode="layer"
     id="layer3"
     inkscape:label="Bottom"
     style="display:inline;opacity:1">
    <rect
       style="fill:#262626;fill-opacity:1;stroke:none;stroke-width:1.37584;stroke-opacity:0.682737"
       id="rect4236"
       width="34.395836"
       height="34.395836"
       x="2.6458333"
       y="2.2048619"
       ry="4.5861106" />
  </g>
  <g
     inkscape:groupmode="layer"
     id="layer4"
     inkscape:label="Mid lower"
     style="display:inline;opacity:0.904873;filter:url(#filter4230)">
    <path
       id="path4238"
       style="display:inline;fill:url(#linearGradient4252);fill-opacity:1;stroke:none;stroke-width:1.37584;stroke-opacity:0.682737"
       d="m 19.84375,3.351389 c -1.270353,0 -2.293056,1.022703 -2.293056,2.293056 0,1.270353 1.022703,2.293055 2.293056,2.293055 1.270353,0 2.293055,-1.022702 2.293055,-2.293055 0,-1.270353 -1.022702,-2.293056 -2.293055,-2.293056 z m 0,4.586111 c -1.270353,0 -2.293056,1.022703 -2.293056,2.293056 0,1.270352 1.022703,2.293056 2.293056,2.293056 1.270353,0 2.293055,-1.022704 2.293055,-2.293056 0,-1.270353 -1.022702,-2.293056 -2.293055,-2.293056 z m 0,4.586112 c -1.270353,0 -2.293056,1.022702 -2.293056,2.293055 0,1.270352 1.022703,2.293055 2.293056,2.293055 1.270353,0 2.293055,-1.022703 2.293055,-2.293055 0,-1.270353 -1.022702,-2.293055 -2.293055,-2.293055 z m 0,4.58611 c -1.270353,0 -2.293056,1.022703 -2.293056,2.293056 0,1.270353 1.022703,2.293055 2.293056,2.293055 1.270353,0 2.293055,-1.022702 2.293055,-2.293055 0,-1.270353 -1.022702,-2.293056 -2.293055,-2.293056 z m 0,4.586111 c -1.270353,0 -2.293056,1.022703 -2.293056,2.293056 0,1.270353 1.022703,2.293055 2.293056,2.293055 1.270353,0 2.293055,-1.022702 2.293055,-2.293055 0,-1.270353 -1.022702,-2.293056 -2.293055,-2.293056 z m 2.293055,2.293056 c 0,1.270353 1.022703,2.293055 2.293056,2.293055 1.270353,0 2.293055,-1.022702 2.293055,-2.293055 0,-1.270353 -1.022702,-2.293056 -2.293055,-2.293056 -1.270353,0 -2.293056,1.022703 -2.293056,2.293056 z m 4.586111,0 c 0,1.270353 1.022703,2.293055 2.293056,2.293055 1.270353,0 2.293056,-1.022702 2.293056,-2.293055 0,-1.270353 -1.022703,-2.293056 -2.293056,-2.293056 -1.270353,0 -2.293056,1.022703 -2.293056,2.293056 z m 4.586112,0 c 0,1.270353 1.022702,2.293055 2.293055,2.293055 1.270352,0 2.293056,-1.022702 2.293056,-2.293055 0,-1.270353 -1.022704,-2.293056 -2.293056,-2.293056 -1.270353,0 -2.293055,1.022703 -2.293055,2.293056 z m 2.293055,-2.293056 c 1.270352,0 2.293056,-1.022702 2.293056,-2.293055 0,-1.270353 -1.022704,-2.293056 -2.293056,-2.293056 -1.270353,0 -2.293055,1.022703 -2.293055,2.293056 0,1.270353 1.022702,2.293055 2.293055,2.293055 z m 0,-4.586111 c 1.270352,0 2.293056,-1.022703 2.293056,-2.293055 0,-1.270353 -1.022704,-2.293055 -2.293056,-2.293055 -1.270353,0 -2.293055,1.022702 -2.293055,2.293055 0,1.270352 1.022702,2.293055 2.293055,2.293055 z M 19.84375,26.281944 c -1.270353,0 -2.293056,1.022703 -2.293056,2.293056 0,1.270353 1.022703,2.293056 2.293056,2.293056 1.270353,0 2.293055,-1.022703 2.293055,-2.293056 0,-1.270353 -1.022702,-2.293056 -2.293055,-2.293056 z m 0,4.586112 c -1.270353,0 -2.293056,1.022702 -2.293056,2.293055 0,1.270352 1.022703,2.293056 2.293056,2.293056 1.270353,0 2.293055,-1.022704 2.293055,-2.293056 0,-1.270353 -1.022702,-2.293055 -2.293055,-2.293055 z m -2.293056,-6.879167 c 0,-1.270353 -1.022703,-2.293056 -2.293055,-2.293056 -1.270353,0 -2.293055,1.022703 -2.293055,2.293056 0,1.270353 1.022702,2.293055 2.293055,2.293055 1.270352,0 2.293055,-1.022702 2.293055,-2.293055 z m -4.58611,0 c 0,-1.270353 -1.022704,-2.293056 -2.293056,-2.293056 -1.2703532,0 -2.293056,1.022703 -2.293056,2.293056 0,1.270353 1.0227028,2.293055 2.293056,2.293055 1.270352,0 2.293056,-1.022702 2.293056,-2.293055 z m -4.586112,0 c 0,-1.270353 -1.0227028,-2.293056 -2.2930555,-2.293056 -1.2703528,0 -2.2930555,1.022703 -2.2930555,2.293056 0,1.270353 1.0227027,2.293055 2.2930555,2.293055 1.2703527,0 2.2930555,-1.022702 2.2930555,-2.293055 z M 6.0854165,21.695833 c 1.2703527,0 2.2930555,-1.022702 2.2930555,-2.293055 0,-1.270353 -1.0227028,-2.293056 -2.2930555,-2.293056 -1.2703528,0 -2.2930555,1.022703 -2.2930555,2.293056 0,1.270353 1.0227027,2.293055 2.2930555,2.293055 z m 0,-4.586111 c 1.2703527,0 2.2930555,-1.022703 2.2930555,-2.293055 0,-1.270353 -1.0227028,-2.293055 -2.2930555,-2.293055 -1.2703528,0 -2.2930555,1.022702 -2.2930555,2.293055 0,1.270352 1.0227027,2.293055 2.2930555,2.293055 z" />
    <path
       id="path4240"
       style="display:inline;fill:url(#linearGradient4250);fill-opacity:1;stroke:none;stroke-width:1.37584;stroke-opacity:0.682737"
       d="m 19.84375,3.351389 c -1.270353,0 -2.293056,1.022703 -2.293056,2.293056 0,1.270353 1.022703,2.293055 2.293056,2.293055 1.270353,0 2.293055,-1.022702 2.293055,-2.293055 0,-1.270353 -1.022702,-2.293056 -2.293055,-2.293056 z m 0,4.586111 c -1.270353,0 -2.293056,1.022703 -2.293056,2.293056 0,1.270352 1.022703,2.293056 2.293056,2.293056 1.270353,0 2.293055,-1.022704 2.293055,-2.293056 0,-1.270353 -1.022702,-2.293056 -2.293055,-2.293056 z m 0,4.586112 c -1.270353,0 -2.293056,1.022702 -2.293056,2.293055 0,1.270352 1.022703,2.293055 2.293056,2.293055 1.270353,0 2.293055,-1.022703 2.293055,-2.293055 0,-1.270353 -1.022702,-2.293055 -2.293055,-2.293055 z m 0,4.58611 c -1.270353,0 -2.293056,1.022703 -2.293056,2.293056 0,1.270353 1.022703,2.293055 2.293056,2.293055 1.270353,0 2.293055,-1.022702 2.293055,-2.293055 0,-1.270353 -1.022702,-2.293056 -2.293055,-2.293056 z m 0,4.586111 c -1.270353,0 -2.293056,1.022703 -2.293056,2.293056 0,1.270353 1.022703,2.293055 2.293056,2.293055 1.270353,0 2.293055,-1.022702 2.293055,-2.293055 0,-1.270353 -1.022702,-2.293056 -2.293055,-2.293056 z m 2.293055,2.293056 c 0,1.270353 1.022703,2.293055 2.293056,2.293055 1.270353,0 2.293055,-1.022702 2.293055,-2.293055 0,-1.270353 -1.022702,-2.293056 -2.293055,-2.293056 -1.270353,0 -2.293056,1.022703 -2.293056,2.293056 z m 4.586111,0 c 0,1.270353 1.022703,2.293055 2.293056,2.293055 1.270353,0 2.293056,-1.022702 2.293056,-2.293055 0,-1.270353 -1.022703,-2.293056 -2.293056,-2.293056 -1.270353,0 -2.293056,1.022703 -2.293056,2.293056 z m 4.586112,0 c 0,1.270353 1.022702,2.293055 2.293055,2.293055 1.270352,0 2.293056,-1.022702 2.293056,-2.293055 0,-1.270353 -1.022704,-2.293056 -2.293056,-2.293056 -1.270353,0 -2.293055,1.022703 -2.293055,2.293056 z m 2.293055,-2.293056 c 1.270352,0 2.293056,-1.022702 2.293056,-2.293055 0,-1.270353 -1.022704,-2.293056 -2.293056,-2.293056 -1.270353,0 -2.293055,1.022703 -2.293055,2.293056 0,1.270353 1.022702,2.293055 2.293055,2.293055 z m 0,-4.586111 c 1.270352,0 2.293056,-1.022703 2.293056,-2.293055 0,-1.270353 -1.022704,-2.293055 -2.293056,-2.293055 -1.270353,0 -2.293055,1.022702 -2.293055,2.293055 0,1.270352 1.022702,2.293055 2.293055,2.293055 z M 19.84375,26.281944 c -1.270353,0 -2.293056,1.022703 -2.293056,2.293056 0,1.270353 1.022703,2.293056 2.293056,2.293056 1.270353,0 2.293055,-1.022703 2.293055,-2.293056 0,-1.270353 -1.022702,-2.293056 -2.293055,-2.293056 z m 0,4.586112 c -1.270353,0 -2.293056,1.022702 -2.293056,2.293055 0,1.270352 1.022703,2.293056 2.293056,2.293056 1.270353,0 2.293055,-1.022704 2.293055,-2.293056 0,-1.270353 -1.022702,-2.293055 -2.293055,-2.293055 z m -2.293056,-6.879167 c 0,-1.270353 -1.022703,-2.293056 -2.293055,-2.293056 -1.270353,0 -2.293055,1.022703 -2.293055,2.293056 0,1.270353 1.022702,2.293055 2.293055,2.293055 1.270352,0 2.293055,-1.022702 2.293055,-2.293055 z m -4.58611,0 c 0,-1.270353 -1.022704,-2.293056 -2.293056,-2.293056 -1.2703532,0 -2.293056,1.022703 -2.293056,2.293056 0,1.270353 1.0227028,2.293055 2.293056,2.293055 1.270352,0 2.293056,-1.022702 2.293056,-2.293055 z m -4.586112,0 c 0,-1.270353 -1.0227028,-2.293056 -2.2930555,-2.293056 -1.2703528,0 -2.2930555,1.022703 -2.2930555,2.293056 0,1.270353 1.0227027,2.293055 2.2930555,2.293055 1.2703527,0 2.2930555,-1.022702 2.2930555,-2.293055 z M 6.0854165,21.695833 c 1.2703527,0 2.2930555,-1.022702 2.2930555,-2.293055 0,-1.270353 -1.0227028,-2.293056 -2.2930555,-2.293056 -1.2703528,0 -2.2930555,1.022703 -2.2930555,2.293056 0,1.270353 1.0227027,2.293055 2.2930555,2.293055 z m 0,-4.586111 c 1.2703527,0 2.2930555,-1.022703 2.2930555,-2.293055 0,-1.270353 -1.0227028,-2.293055 -2.2930555,-2.293055 -1.2703528,0 -2.2930555,1.022702 -2.2930555,2.293055 0,1.270352 1.0227027,2.293055 2.2930555,2.293055 z" />
  </g>
  <g
     inkscape:label="Mid"
     inkscape:groupmode="layer"
     id="layer1"
     style="display:inline">
    <path
       id="path4242"
       style="display:inline;fill:url(#linearGradient4248);fill-opacity:1;stroke:none;stroke-width:1.37584;stroke-opacity:0.682737"
       d="m 19.84375,3.351389 c -1.270353,0 -2.293056,1.022703 -2.293056,2.293056 0,1.270353 1.022703,2.293055 2.293056,2.293055 1.270353,0 2.293055,-1.022702 2.293055,-2.293055 0,-1.270353 -1.022702,-2.293056 -2.293055,-2.293056 z m 0,4.586111 c -1.270353,0 -2.293056,1.022703 -2.293056,2.293056 0,1.270352 1.022703,2.293056 2.293056,2.293056 1.270353,0 2.293055,-1.022704 2.293055,-2.293056 0,-1.270353 -1.022702,-2.293056 -2.293055,-2.293056 z m 0,4.586112 c -1.270353,0 -2.293056,1.022702 -2.293056,2.293055 0,1.270352 1.022703,2.293055 2.293056,2.293055 1.270353,0 2.293055,-1.022703 2.293055,-2.293055 0,-1.270353 -1.022702,-2.293055 -2.293055,-2.293055 z m 0,4.58611 c -1.270353,0 -2.293056,1.022703 -2.293056,2.293056 0,1.270353 1.022703,2.293055 2.293056,2.293055 1.270353,0 2.293055,-1.022702 2.293055,-2.293055 0,-1.270353 -1.022702,-2.293056 -2.293055,-2.293056 z m 0,4.586111 c -1.270353,0 -2.293056,1.022703 -2.293056,2.293056 0,1.270353 1.022703,2.293055 2.293056,2.293055 1.270353,0 2.293055,-1.022702 2.293055,-2.293055 0,-1.270353 -1.022702,-2.293056 -2.293055,-2.293056 z m 2.293055,2.293056 c 0,1.270353 1.022703,2.293055 2.293056,2.293055 1.270353,0 2.293055,-1.022702 2.293055,-2.293055 0,-1.270353 -1.022702,-2.293056 -2.293055,-2.293056 -1.270353,0 -2.293056,1.022703 -2.293056,2.293056 z m 4.586111,0 c 0,1.270353 1.022703,2.293055 2.293056,2.293055 1.270353,0 2.293056,-1.022702 2.293056,-2.293055 0,-1.270353 -1.022703,-2.293056 -2.293056,-2.293056 -1.270353,0 -2.293056,1.022703 -2.293056,2.293056 z m 4.586112,0 c 0,1.270353 1.022702,2.293055 2.293055,2.293055 1.270352,0 2.293056,-1.022702 2.293056,-2.293055 0,-1.270353 -1.022704,-2.293056 -2.293056,-2.293056 -1.270353,0 -2.293055,1.022703 -2.293055,2.293056 z m 2.293055,-2.293056 c 1.270352,0 2.293056,-1.022702 2.293056,-2.293055 0,-1.270353 -1.022704,-2.293056 -2.293056,-2.293056 -1.270353,0 -2.293055,1.022703 -2.293055,2.293056 0,1.270353 1.022702,2.293055 2.293055,2.293055 z m 0,-4.586111 c 1.270352,0 2.293056,-1.022703 2.293056,-2.293055 0,-1.270353 -1.022704,-2.293055 -2.293056,-2.293055 -1.270353,0 -2.293055,1.022702 -2.293055,2.293055 0,1.270352 1.022702,2.293055 2.293055,2.293055 z M 19.84375,26.281944 c -1.270353,0 -2.293056,1.022703 -2.293056,2.293056 0,1.270353 1.022703,2.293056 2.293056,2.293056 1.270353,0 2.293055,-1.022703 2.293055,-2.293056 0,-1.270353 -1.022702,-2.293056 -2.293055,-2.293056 z m 0,4.586112 c -1.270353,0 -2.293056,1.022702 -2.293056,2.293055 0,1.270352 1.022703,2.293056 2.293056,2.293056 1.270353,0 2.293055,-1.022704 2.293055,-2.293056 0,-1.270353 -1.022702,-2.293055 -2.293055,-2.293055 z m -2.293056,-6.879167 c 0,-1.270353 -1.022703,-2.293056 -2.293055,-2.293056 -1.270353,0 -2.293055,1.022703 -2.293055,2.293056 0,1.270353 1.022702,2.293055 2.293055,2.293055 1.270352,0 2.293055,-1.022702 2.293055,-2.293055 z m -4.58611,0 c 0,-1.270353 -1.022704,-2.293056 -2.293056,-2.293056 -1.2703532,0 -2.293056,1.022703 -2.293056,2.293056 0,1.270353 1.0227028,2.293055 2.293056,2.293055 1.270352,0 2.293056,-1.022702 2.293056,-2.293055 z m -4.586112,0 c 0,-1.270353 -1.0227028,-2.293056 -2.2930555,-2.293056 -1.2703528,0 -2.2930555,1.022703 -2.2930555,2.293056 0,1.270353 1.0227027,2.293055 2.2930555,2.293055 1.2703527,0 2.2930555,-1.022702 2.2930555,-2.293055 z M 6.0854165,21.695833 c 1.2703527,0 2.2930555,-1.022702 2.2930555,-2.293055 0,-1.270353 -1.0227028,-2.293056 -2.2930555,-2.293056 -1.2703528,0 -2.2930555,1.022703 -2.2930555,2.293056 0,1.270353 1.0227027,2.293055 2.2930555,2.293055 z m 0,-4.586111 c 1.2703527,0 2.2930555,-1.022703 2.2930555,-2.293055 0,-1.270353 -1.0227028,-2.293055 -2.2930555,-2.293055 -1.2703528,0 -2.2930555,1.022702 -2.2930555,2.293055 0,1.270352 1.0227027,2.293055 2.2930555,2.293055 z" />
  </g>
  <g
     inkscape:groupmode="layer"
     id="layer2"
     inkscape:label="Top"
     style="display:inline">
    <rect
       style="fill:url(#linearGradient4246);fill-opacity:1;stroke:none;stroke-width:1.47411;stroke-opacity:0.682737"
       id="rect4244"
       width="34.395832"
       height="34.395832"
       x="2.6458354"
       y="2.2048619"
       ry="4.9136901" />
  </g>
</svg>
